PathFileType	4	(X/Y/Z)	C:/Users/beibeiliu/ov580/test_trc/User3\sequence.11_training_dense_right.trc
DataRate	CameraRate	NumFrames	NumMarkers	Units	OrigDataRate	OrigDataStartFrame	OrigNumFrames
120	120	14	19	mm	120	74	196
Frame#	Time	ThumbCMC			ThumbMCP			ThumbIP			ThumbTip			IndexMCP			IndexPIP			IndexTip			MiddleMCP			MiddlePIP			MiddleTip			RingMCP			RingPIP			RingTip			PinkyMCP			PinkyPIP			PinkyTip			BackHand1			BackHand2			BackHand3	
		X0	Y0	Z0	X1	Y1	Z1	X2	Y2	Z2	X3	Y3	Z3	X4	Y4	Z4	X5	Y5	Z5	X6	Y6	Z6	X7	Y7	Z7	X8	Y8	Z8	X9	Y9	Z9	X10	Y10	Z10	X11	Y11	Z11	X12	Y12	Z12	X13	Y13	Z13	X14	Y14	Z14	X15	Y15	Z15	X16	Y16	Z16	X17	Y17	Z17	X18	Y18	Z18	
73	0.608333	218.047	-43.445	25.8121	234.457	-35.7207	3.88677	241.636	-27.2123	-22.1109	252.885	-21.5935	-38.8033	191.304	-37.8241	-45.5767	193.865	-30.3744	-71.1596	189.927	-26.7186	-93.8091	165.781	-46.8031	-47.6605	158.076	-41.6579	-69.5363	149.981	-35.088	-100.452	148.079	-48.8014	-30.9794	133.306	-48.9458	-53.2771	121.31	-46.3529	-76.4543	127.567	-46.7445	-7.16305	108.344	-44.9155	-18.9878	90.1969	-47.675	-33.7817	164.25	-65.558	7.72922	171.359	-76.9301	36.8111	199.259	-63.6503	15.5652	
74	0.616667	217.162	-41.572	27.0767	229.457	-33.8519	1.19158	240.648	-26.2917	-21.5435	250.717	-19.37	-40.5298	190.034	-36.073	-45.391	190.499	-30.1155	-72.9125	184.075	-25.3253	-94.3593	164.317	-44.7274	-48.0386	154.411	-40.5145	-72.1717	146.554	-35.0774	-98.9684	145.847	-48.3263	-30.0062	130.89	-46.6706	-55.3428	121.159	-45.581	-73.6537	126.396	-45.8403	-6.9512	106.773	-43.68	-20.8675	90.876	-44.3422	-34.7481	159.977	-65.4298	7.47326	170.375	-76.2257	37.378	196.522	-62.8383	11.3474	
75	0.625	217.725	-41.3021	25.5738	231.553	-33.7554	3.92129	242.825	-25.6198	-20.445	254.8	-19.633	-40.9757	188.896	-33.7864	-47.7147	188.732	-27.5997	-72.1238	187.522	-22.7884	-95.8987	166.287	-43.4982	-45.5658	156.896	-38.2742	-74.0231	145.14	-31.0339	-103.875	142.307	-46.4671	-34.2713	135.004	-44.7371	-51.489	120.092	-42.8061	-74.9582	126.592	-44.956	-6.02607	109.539	-42.5759	-16.2939	89.7222	-44.0428	-31.4639	159.465	-64.9383	7.60613	169.335	-74.7317	36.3494	197.924	-62.8589	10.2416	
76	0.633333	217.846	-41.1971	27.1963	230.901	-33.0635	-0.681567	241.146	-24.0675	-22.473	255.164	-17.5423	-38.4277	186.467	-34.174	-43.6612	190.789	-25.9201	-70.236	183.138	-21.2802	-97.9641	164.559	-41.9278	-47.1081	154.473	-36.9925	-72.2437	147.126	-28.8714	-99.899	145.353	-44.3402	-31.2463	131.683	-43.6252	-54.0991	119.71	-41.1587	-74.4142	127.176	-43.3162	-7.13466	110.124	-41.5376	-17.1931	91.3766	-42.8866	-33.6946	163.071	-63.655	11.6603	166.657	-76.3236	33.5113	196.808	-63.1067	15.659	
77	0.641667	218.889	-40.3535	26.1525	227.79	-30.2801	3.63058	241.058	-23.1508	-21.1183	253.476	-15.1009	-38.3633	190.144	-31.4719	-48.1435	188.079	-24.1157	-70.8154	181.799	-20.7601	-94.9823	161.94	-40.6895	-46.7169	156.931	-34.6363	-70.6019	142.998	-29.1614	-98.8309	139.226	-44.71	-33.0216	133.853	-41.1092	-51.2217	121.152	-39.8149	-72.698	123.292	-43.1532	-3.56863	105.956	-40.6019	-16.0553	86.8239	-41.003	-30.7089	161.262	-61.6479	9.41737	166.031	-73.4604	34.656	193.334	-61.0801	14.2095	
78	0.65	219.731	-40.0456	27.6098	230.389	-29.98	5.33611	242.678	-21.7832	-25.7902	249.964	-13.7394	-41.9572	186.43	-30.6019	-43.0713	188.964	-23.6258	-69.9006	181.52	-19.9668	-94.0845	162.541	-40.5414	-42.7332	151.338	-35.6475	-68.4489	142.888	-28.4434	-97.3831	139.491	-43.4177	-30.1821	127.666	-42.5031	-50.3887	116.222	-38.3448	-72.5117	121.588	-42.2768	-5.71378	106.905	-40.4293	-13.0274	91.0109	-41.3986	-28.8558	162.487	-63.4943	9.81916	171.934	-75.349	35.8472	194.262	-60.1521	13.0911	
79	0.658333	219.634	-38.5967	25.6347	231.153	-30.4005	2.61701	239.307	-20.6346	-19.3703	248.639	-13.9362	-40.0781	189.162	-29.0112	-47.4891	184.753	-23.854	-71.7191	185.379	-17.7011	-94.4714	163.791	-39.6601	-43.8782	153.457	-34.518	-68.0155	142.217	-26.5797	-101.318	143.829	-42.4108	-27.6758	130.261	-41.3341	-50.6867	114.835	-37.6316	-73.4394	122.223	-43.0886	-4.10897	110.459	-38.6813	-16.879	88.3243	-41.8221	-27.8349	163.839	-63.4201	11.2947	172.582	-73.9317	33.6812	197.305	-59.0131	14.8705	
80	0.666667	220.793	-39.5459	26.4607	231.574	-29.6603	-0.0147651	241.514	-20.5732	-22.73	255.012	-13.8663	-37.8277	186.005	-29.827	-47.0005	187.19	-22.1511	-70.6506	183.955	-17.1282	-94.1856	161.148	-38.5229	-44.5147	150.921	-34.112	-68.2831	144.23	-26.1389	-97.9756	143.441	-42.391	-27.5074	131.792	-38.8709	-48.0422	117.185	-36.6339	-71.7563	126.249	-41.5641	-5.20053	106.99	-38.4411	-15.5869	87.0139	-38.5042	-28.4741	165.665	-62.3818	10.6598	172.413	-72.8982	35.0293	198.105	-58.4735	14.7623	
81	0.675	221.489	-38.7061	25.4619	231.562	-28.7711	1.48938	243.553	-20.9784	-22.6171	250.501	-13.1208	-39.7745	189.847	-27.6778	-46.9274	188.193	-20.0675	-70.5066	185.085	-15.6793	-95.6622	158.921	-38.6777	-46.2205	149.634	-31.4821	-70.6431	143.686	-24.2852	-98.5613	141.242	-41.6635	-28.6096	131.19	-37.9946	-50.3203	112.923	-35.9785	-69.5764	124.612	-40.2785	-4.78803	106.874	-37.1917	-13.1218	90.0461	-38.0643	-25.6163	165.557	-62.0995	12.9322	170.561	-75.0064	37.1139	194.858	-59.8351	14.1807	
82	0.683333	224.422	-38.4559	23.4503	231.735	-28.8098	0.728206	240.723	-20.0878	-24.9985	252.445	-12.8495	-41.2856	185.351	-26.9919	-46.6985	186.037	-20.3473	-68.0105	181.679	-15.1559	-89.8386	161.217	-37.1431	-42.9959	155.192	-30.9356	-65.5299	140.321	-23.8463	-98.4483	141.045	-39.9287	-28.3215	129.327	-35.5346	-48.6604	114.027	-33.1311	-65.3777	127.212	-39.4336	-1.11248	107.144	-35.1121	-9.67979	91.3635	-35.2116	-21.4	162.552	-61.1501	9.50238	172.877	-74.2342	33.4582	196.376	-57.7954	11.6619	
83	0.691667	221.09	-38.8329	25.9785	232.449	-27.5088	-0.192348	241.814	-19.0794	-22.7531	252.83	-11.5601	-40.3398	184.482	-27.8089	-42.9592	185.707	-19.391	-69.7549	182.95	-13.4924	-93.3233	158.186	-37.6806	-40.0761	150.128	-30.3258	-63.6059	139.099	-23.2321	-92.9773	142.966	-38.674	-23.81	127.48	-35.615	-41.0477	112.433	-31.8228	-65.9558	123.246	-37.1641	-1.02925	105.866	-32.2562	-10.0287	89.907	-33.0508	-18.1317	161.498	-62.452	12.4914	171.552	-74.9428	39.7321	196.225	-60.0327	12.3381	
84	0.7	221.207	-37.6683	25.609	228.1	-26.1625	0.580797	241.558	-16.1574	-25.0777	249.419	-7.79113	-38.8996	187.668	-25.998	-44.6514	181.077	-18.6895	-68.1419	177.916	-13.3059	-91.9055	159.256	-35.5582	-38.6576	147.248	-30.6199	-65.9173	133.197	-25.4432	-92.2256	140.406	-38.4073	-26.0535	122.421	-37.035	-39.0153	110.984	-31.0656	-62.1311	126.026	-38.5759	5.08458	105.588	-34.1915	-2.0557	89.1641	-31.1172	-14.8748	165.262	-59.6998	9.63554	172.394	-73.6688	36.4447	194.401	-57.8753	12.5791	
85	0.708333	219.8	-36.3909	24.0139	229.158	-24.4948	1.59083	237.102	-13.8235	-23.6556	251.036	-5.8131	-37.7924	184.062	-25.5115	-41.0779	180.438	-19.2497	-66.5037	175.123	-14.0522	-91.6728	157.14	-35.4964	-42.2855	144.878	-32.0975	-60.5527	131.137	-26.9216	-92.3072	134.71	-39.1322	-22.0335	124.494	-35.9174	-38.8787	104.04	-33.7661	-58.8177	121.637	-37.6492	3.71749	104.745	-34.1206	-1.29857	84.148	-30.0081	-14.5085	165.445	-60.2366	13.8076	173.666	-72.9638	40.8465	195.428	-59.2695	16.7738	
86	0.716667	220.387	-35.457	23.4525	230.137	-23.2037	3.50005	240.093	-13.3436	-24.5755	250.421	-4.44257	-35.9521	182.165	-25.5891	-43.8072	178.466	-18.5612	-63.7737	170.333	-14.2104	-92.4163	154.561	-37.8591	-38.7279	142.363	-33.4774	-62.48	129.624	-27.0964	-92.236	133.036	-39.6184	-23.0712	121.527	-36.1961	-41.6395	104.976	-32.698	-62.3866	121.711	-37.5324	4.69373	103.14	-33.8161	-3.79821	84.8389	-32.7952	-11.6313	162.313	-58.9437	13.0953	172.068	-75.1627	38.5144	194.546	-58.3864	12.634	
